<?xml version="1.0" encoding="UTF-8" standalone="no"?><svg xmlns="http://www.w3.org/2000/svg" xmlns:xlink="http://www.w3.org/1999/xlink" contentScriptType="application/ecmascript" contentStyleType="text/css" height="387px" preserveAspectRatio="none" style="width:479px;height:387px;" version="1.1" viewBox="0 0 479 387" width="479px" zoomAndPan="magnify"><defs><filter height="300%" id="f14uczgyule5mp" width="300%" x="-1" y="-1"><feGaussianBlur result="blurOut" stdDeviation="2.0"/><feColorMatrix in="blurOut" result="blurOut2" type="matrix" values="0 0 0 0 0 0 0 0 0 0 0 0 0 0 0 0 0 0 .4 0"/><feOffset dx="4.0" dy="4.0" in="blurOut2" result="blurOut3"/><feBlend in="SourceGraphic" in2="blurOut3" mode="normal"/></filter></defs><g><!--MD5=[8c2793f18c0d2d4e65a4ad8131d5f8b3]
entity encoding--><rect fill="#F8F8F8" filter="url(#f14uczgyule5mp)" height="36.3441" style="stroke: #383838; stroke-width: 1.5;" width="123" x="6.5" y="112"/><rect fill="#F8F8F8" height="5" style="stroke: #383838; stroke-width: 1.5;" width="10" x="1.5" y="117"/><rect fill="#F8F8F8" height="5" style="stroke: #383838; stroke-width: 1.5;" width="10" x="1.5" y="138.3441"/><text fill="#000000" font-family="Arial" font-size="12" lengthAdjust="spacingAndGlyphs" textLength="103" x="16.5" y="134.8281">Classical Encoding</text><!--MD5=[09e344fe5cb8186a6516d913a656c1fc]
entity surrogate--><rect fill="#F8F8F8" filter="url(#f14uczgyule5mp)" height="36.3441" style="stroke: #383838; stroke-width: 1.5;" width="167" x="110.5" y="226"/><rect fill="#F8F8F8" height="5" style="stroke: #383838; stroke-width: 1.5;" width="10" x="105.5" y="231"/><rect fill="#F8F8F8" height="5" style="stroke: #383838; stroke-width: 1.5;" width="10" x="105.5" y="252.3441"/><text fill="#000000" font-family="Arial" font-size="12" lengthAdjust="spacingAndGlyphs" textLength="147" x="120.5" y="248.8281">Neural Network Surrogate</text><!--MD5=[7005c0a3acff0385f3cd8fbf577c28a2]
entity quantum--><rect fill="#F8F8F8" filter="url(#f14uczgyule5mp)" height="36.3441" style="stroke: #383838; stroke-width: 1.5;" width="106" x="332" y="112"/><rect fill="#F8F8F8" height="5" style="stroke: #383838; stroke-width: 1.5;" width="10" x="327" y="117"/><rect fill="#F8F8F8" height="5" style="stroke: #383838; stroke-width: 1.5;" width="10" x="327" y="138.3441"/><text fill="#000000" font-family="Arial" font-size="12" lengthAdjust="spacingAndGlyphs" textLength="86" x="342" y="134.8281">Quantum Layer</text><!--MD5=[4cc89b328987dc7afef05a3b51de1e72]
entity q_embeddings--><rect fill="#F8F8F8" filter="url(#f14uczgyule5mp)" height="36.3441" style="stroke: #383838; stroke-width: 1.5;" width="144" x="313" y="226"/><rect fill="#F8F8F8" height="5" style="stroke: #383838; stroke-width: 1.5;" width="10" x="308" y="231"/><rect fill="#F8F8F8" height="5" style="stroke: #383838; stroke-width: 1.5;" width="10" x="308" y="252.3441"/><text fill="#000000" font-family="Arial" font-size="12" lengthAdjust="spacingAndGlyphs" textLength="124" x="323" y="248.8281">Quantum Embeddings</text><!--MD5=[aea139a97980cd7ae92f2726a6a42141]
entity s_embeddings--><rect fill="#F8F8F8" filter="url(#f14uczgyule5mp)" height="36.3441" style="stroke: #383838; stroke-width: 1.5;" width="148" x="215" y="340"/><rect fill="#F8F8F8" height="5" style="stroke: #383838; stroke-width: 1.5;" width="10" x="210" y="345"/><rect fill="#F8F8F8" height="5" style="stroke: #383838; stroke-width: 1.5;" width="10" x="210" y="366.3441"/><text fill="#000000" font-family="Arial" font-size="12" lengthAdjust="spacingAndGlyphs" textLength="128" x="225" y="362.8281">Surrogate Embeddings</text><path d="M6,8 L6,34.3441 A0,0 0 0 0 6,34.3441 L64,34.3441 L68,111.95 L72,34.3441 L130,34.3441 A0,0 0 0 0 130,34.3441 L130,18 L120,8 L6,8 A0,0 0 0 0 6,8 " fill="#ECECEC" filter="url(#f14uczgyule5mp)" style="stroke: #383838; stroke-width: 1.0;"/><path d="M120,8 L120,18 L130,18 L120,8 " fill="#ECECEC" style="stroke: #383838; stroke-width: 1.0;"/><text fill="#000000" font-family="Arial" font-size="12" lengthAdjust="spacingAndGlyphs" textLength="103" x="12" y="25.8281">From autoencoder</text><path d="M302.5,8 L302.5,34.3441 A0,0 0 0 0 302.5,34.3441 L381,34.3441 L385,111.95 L389,34.3441 L467.5,34.3441 A0,0 0 0 0 467.5,34.3441 L467.5,18 L457.5,8 L302.5,8 A0,0 0 0 0 302.5,8 " fill="#ECECEC" filter="url(#f14uczgyule5mp)" style="stroke: #383838; stroke-width: 1.0;"/><path d="M457.5,8 L457.5,18 L467.5,18 L457.5,8 " fill="#ECECEC" style="stroke: #383838; stroke-width: 1.0;"/><text fill="#000000" font-family="Arial" font-size="12" lengthAdjust="spacingAndGlyphs" textLength="144" x="308.5" y="25.8281">Non-differentiable barrier</text><path d="M165,117 L165,143.3441 A0,0 0 0 0 165,143.3441 L222.9,143.3441 L199.69,225.78 L230.9,143.3441 L297,143.3441 A0,0 0 0 0 297,143.3441 L297,127 L287,117 L165,117 A0,0 0 0 0 165,117 " fill="#ECECEC" filter="url(#f14uczgyule5mp)" style="stroke: #383838; stroke-width: 1.0;"/><path d="M287,117 L287,127 L297,127 L287,117 " fill="#ECECEC" style="stroke: #383838; stroke-width: 1.0;"/><text fill="#000000" font-family="Arial" font-size="12" lengthAdjust="spacingAndGlyphs" textLength="111" x="171" y="134.8281">Differentiable proxy</text><!--MD5=[cb30c2885a4bd64c9b73e81a576d616c]
link encoding to quantum--><path d="M96.42,111.93 C132.71,91.05 197.7,60.99 255,73 C288.49,80.02 323.9,96.19 349.29,109.53 " fill="none" id="encoding-&gt;quantum" style="stroke: #000000; stroke-width: 1.0;"/><polygon fill="#000000" points="353.91,111.98,347.8355,104.2275,349.4935,109.636,344.0851,111.2939,353.91,111.98" style="stroke: #000000; stroke-width: 1.0;"/><text fill="#000000" font-family="Arial" font-size="12" lengthAdjust="spacingAndGlyphs" textLength="46" x="208" y="77.8281">Forward</text><!--MD5=[ccd9cd6d60916d775eba328ea90629b7]
link quantum to q_embeddings--><path d="M385,148.01 C385,167.42 385,199.22 385,220.63 " fill="none" id="quantum-&gt;q_embeddings" style="stroke: #000000; stroke-width: 1.0;"/><polygon fill="#000000" points="385,225.83,389,216.83,385,220.83,381,216.83,385,225.83" style="stroke: #000000; stroke-width: 1.0;"/><text fill="#000000" font-family="Arial" font-size="12" lengthAdjust="spacingAndGlyphs" textLength="46" x="386" y="191.8281">Forward</text><!--MD5=[7578da08dfc37d41407710cd60ecfa83]
link encoding to surrogate--><path d="M87.14,148.01 C109.62,167.99 146.89,201.12 170.94,222.5 " fill="none" id="encoding-&gt;surrogate" style="stroke: #000000; stroke-width: 1.0;"/><polygon fill="#000000" points="174.68,225.83,170.6129,216.8601,170.9437,222.5073,165.2966,222.8381,174.68,225.83" style="stroke: #000000; stroke-width: 1.0;"/><text fill="#000000" font-family="Arial" font-size="12" lengthAdjust="spacingAndGlyphs" textLength="46" x="139" y="191.8281">Forward</text><!--MD5=[369bbc44c125f837343978e68ceec43a]
link surrogate to s_embeddings--><path d="M208.43,262.01 C225.24,281.83 253.02,314.58 271.16,335.97 " fill="none" id="surrogate-&gt;s_embeddings" style="stroke: #000000; stroke-width: 1.0;"/><polygon fill="#000000" points="274.44,339.83,271.6579,330.3823,271.2013,336.0207,265.5629,335.5641,274.44,339.83" style="stroke: #000000; stroke-width: 1.0;"/><text fill="#000000" font-family="Arial" font-size="12" lengthAdjust="spacingAndGlyphs" textLength="46" x="248" y="305.8281">Forward</text><!--MD5=[f2126c31588d1416533f6d3c1deddcc4]
link q_embeddings to s_embeddings--><path d="M370.42,262.01 C352.38,283.06 321.82,318.7 303.72,339.83 " fill="none" id="q_embeddings-s_embeddings" style="stroke: #000000; stroke-width: 1.0; stroke-dasharray: 7.0,7.0;"/><text fill="#000000" font-family="Arial" font-size="12" lengthAdjust="spacingAndGlyphs" textLength="81" x="343" y="305.8281">Train to match</text><!--MD5=[c55f8009f8c597b83f8eb601e2463a59]
@startuml
skinparam monochrome true
skinparam componentStyle rectangle
skinparam defaultFontName Arial
skinparam defaultFontSize 12
skinparam ArrowColor black

component "Classical Encoding" as encoding
component "Neural Network Surrogate" as surrogate
component "Quantum Layer" as quantum
component "Quantum Embeddings" as q_embeddings
component "Surrogate Embeddings" as s_embeddings

note top of encoding : From autoencoder
note top of quantum : Non-differentiable barrier
note top of surrogate : Differentiable proxy

encoding -right-> quantum : Forward
quantum -down-> q_embeddings : Forward
encoding -down-> surrogate : Forward
surrogate -right-> s_embeddings : Forward

q_embeddings .. s_embeddings : Train to match

@enduml

PlantUML version 1.2020.02(Sun Mar 01 10:22:07 WET 2020)
(GPL source distribution)
Java Runtime: OpenJDK Runtime Environment
JVM: OpenJDK 64-Bit Server VM
Java Version: 17.0.14+7-Debian-1deb12u1
Operating System: Linux
Default Encoding: UTF-8
Language: en
Country: US
--></g></svg>